# xmcd
#
# Track frame offsets:
#	150
#	9982
#	23508
#	37094
#	48621
#	59782
#	70916
#	85750
#	100458
#	115853
#	127212
#	137425
#	148878
#	161192
#	172845
#	186105
#	196570
#	206265
#	218577
#	230214
#	241118
#	258265
#	271566
#	280314
#	292526
#
# Disc length: 4094 seconds
#
# Revision: 0
# Processed by: cddbd v1.5.2PL0 Copyright (c) Steve Scherf et al.
# Submitted via: dBpowerAMP V4.0
#
DISCID=640ffc19
DTITLE=Various Artist - Country Classics Fifty 1
DYEAR=2002
DGENRE=Country
TTITLE0=From a Jack To a King
TTITLE1=Tennesseee Waltz
TTITLE2=Big Bad John
TTITLE3=Help Me Make it Through The Night
TTITLE4=Waterloo
TTITLE5=Oh Lonesome Me
TTITLE6=Harper Valley PTA
TTITLE7=A Good Year For Roses
TTITLE8=No Charge
TTITLE9=It Wasn,t God Who Made H.T. Angels
TTITLE10=The Green Green Grass Of Home
TTITLE11=Gonna Get Along Without U Now
TTITLE12=Wasted Days And Wasted Nights
TTITLE13=Down Yonder
TTITLE14=Behind Closed Doors
TTITLE15=Abilene
TTITLE16=Six Days On The Road
TTITLE17=Single Girl
TTITLE18=The Happiest Girl in The Whole USA
TTITLE19=Send Me The Pillow U Dream On
TTITLE20=For The Good Times
TTITLE21=Rose Garden
TTITLE22=The Wings Of A Dove
TTITLE23=LA International Airport
TTITLE24=Put Your Hand In The Hand
EXTD=
EXTT0=
EXTT1=
EXTT2=
EXTT3=
EXTT4=
EXTT5=
EXTT6=
EXTT7=
EXTT8=
EXTT9=
EXTT10=
EXTT11=
EXTT12=
EXTT13=
EXTT14=
EXTT15=
EXTT16=
EXTT17=
EXTT18=
EXTT19=
EXTT20=
EXTT21=
EXTT22=
EXTT23=
EXTT24=
PLAYORDER=
